<svg xmlns="http://www.w3.org/2000/svg" style="display: none;">
  <symbol id="search-icon" viewBox="0 0 24 24" stroke="currentColor" fill="none">
    <path strokeLinecap="round" strokeLinejoin="round" strokeWidth="2" d="M21 21l-6-6m2-5a7 7 0 11-14 0 7 7 0 0114 0z" />
  </symbol>
  <symbol id="argent-sigle" viewBox="0 0 225 225">
    <path fill="#FF875B" d="M139.3,25.7H89.4c-1.7,0-3,1.4-3,3.1c-1,48.3-25.5,94.2-67.6,126.7c-1.3,1-1.6,3-0.7,4.4l29.2,41.6
	c1,1.4,2.9,1.7,4.3,0.7c26.4-20.2,47.6-44.5,62.8-71.5c15.3,27,36.5,51.3,62.8,71.5c1.4,1,3.3,0.7,4.3-0.7l29.2-41.6
	c1-1.4,0.7-3.3-0.7-4.4c-42.2-32.5-66.6-78.3-67.6-126.7C142.3,27.1,140.9,25.7,139.3,25.7z" />
  </symbol>
  <symbol id="argent-logo" viewBox="0 0 650 225">
    <use ref="#argent-sigle" />
    <path fill="#333332" d="M623.3,72h-13.4V55.9c0-0.9-0.4-1.6-1-2.2c-0.6-0.5-1.5-0.7-2.3-0.5l-11.8,2.9c-1.2,0.3-2,1.4-2,2.7V72h-6.7
	c-1.5,0-2.7,1.2-2.7,2.7v9.8c0,1.5,1.2,2.7,2.7,2.7h6.7v39.4c0.2,16.7,10.9,19,22.4,19c1.1,0,2.3,0,3.4-0.1c1.2,0,2.4-0.1,3.6-0.1
	h0.1c1.6-0.2,2.6-1.3,2.6-2.9v-10.3c0-1.5-1.2-2.7-2.7-2.7h-4.1c-5.9,0-8.3-2.6-8.3-9V87.2h13.4c1.5,0,2.7-1.2,2.7-2.7v-9.8
	C626,73.2,624.8,72,623.3,72z M551.3,70.9c-7,0-12.5,2.2-16.4,6.4v-2.6c0-1.6-1.2-2.7-2.7-2.7h-12.4c-1.5,0-2.7,1.2-2.7,2.7v67.9
	c0,1.6,1.2,2.7,2.7,2.7h12.4c1.5,0,2.7-1.2,2.7-2.7v-42.5c0-7.9,4.8-13.2,11.9-13.2c7.1,0,11.8,5.2,11.8,13.3v42.4
	c0,1.6,1.2,2.7,2.7,2.7h12.4c1.5,0,2.7-1.2,2.7-2.7V96.9C576.4,81.1,566.6,70.9,551.3,70.9z M488.6,101.4h-26.4c0.2-2.3,0.5-4,1-5.4
	v-0.1c1.7-5.9,5.9-9,11.9-9c6.6,0,11.2,3.6,12.8,9.9C488.2,97.8,488.5,99.5,488.6,101.4z M475.2,70.9c-14.4,0-25.4,8.2-29.3,21.8
	c-1.3,4.1-1.8,9.2-1.7,15.5c0,7.8,1,14.1,3.2,19.2c4.7,12.1,15.1,18.9,29.1,19.2c0.2,0,0.3,0,0.5,0c11.7,0,21.7-4.8,27.5-13.3
	c0.8-1.3,0.6-2.6-0.6-3.6l-8.4-7.1c-0.8-0.7-1.5-0.7-2-0.7c-0.5,0.1-1.2,0.3-1.9,1.3c-3.3,4.9-7.9,7.3-13.7,7.3
	c-7.8-0.1-12.8-3.3-14.8-9.5c-0.6-1.4-0.9-3.3-1.1-5.5h41.8c1.6,0,2.7-1.1,2.7-2.7c0.1-4.7,0.1-8.4-0.4-12.3
	C503.9,80.9,493.5,70.9,475.2,70.9z M415.9,108.1c0,7.7-0.3,9.7-0.9,12.1c-1.4,5.8-5.7,9.2-11.7,9.2s-10.6-3.5-12.5-9.5
	c-0.6-1.5-1.3-4.7-1.3-11.7c0-5.5,0.5-9.3,1.6-11.9c2-6,6.4-9.4,12-9.4c6,0,10.4,3.5,11.8,9.4C415.6,98.8,415.9,100.6,415.9,108.1z
	 M430.9,72h-12.4c-1.5,0-2.7,1.2-2.7,2.7v1.8c-4.1-3.8-9.5-5.7-16.3-5.7c-12.1,0-22,7.4-25.8,19.3c-2,5.6-2.2,12.6-2.2,18
	c0,7.1,0.6,12.6,1.8,17.1c4.3,14.3,16.8,19.4,27.1,19.4c6.4,0,11.6-1.8,15.3-5.4c-0.1,6-1.6,10.3-4.8,13.1
	c-4.1,3.7-11.1,5.1-21.4,4.1c-2.7,0-3,1.8-3,2.6l-0.4,11.4c0,1.6,0.9,2.7,2.4,2.9c2.6,0.3,5,0.4,7.4,0.4c11.5,0,21.1-3,27.5-8.8
	c6.6-5.9,9.9-14.6,9.9-25.7V74.6C433.6,73.2,432.5,72,430.9,72z M365.6,72.3c-1.9-0.8-4-1.1-6.4-1.1c-6.4,0-11.5,2.6-15.4,7.7v-4.1
	c0-1.5-1.2-2.7-2.7-2.7h-12.4c-1.5,0-2.7,1.2-2.7,2.7v67.9c0,1.5,1.2,2.7,2.7,2.7h12.4c1.5,0,2.7-1.2,2.7-2.7v-39.5
	c0-8.5,6.1-12.7,12.3-13c2.1-0.3,3.4-0.2,4.7,0.1c1.5,0.3,3-0.6,3.3-2.1l3.3-12.1C367.8,74.4,367,72.9,365.6,72.3z M295.7,113.6v6.2
	c0,7.4-7.6,11.8-15,11.8c-5,0-10.3-2.2-10.3-8.3c0-6.1,5.2-9.7,14.3-9.7H295.7z M283.9,70.9c-13.7,0-24.7,6.3-27.9,16
	c-0.3,0.8-0.2,1.7,0.3,2.5c0.4,0.7,1.1,1.2,1.9,1.3l12.2,3.1c1.3,0.2,2.6-0.5,3.1-1.6c1.4-3.3,5.3-5.2,10.9-5.2
	c7.4,0,11.4,3.6,11.4,10.4v3h-14.1c-18.3,0-29.2,9-29.2,24.1c0,16.3,12.6,22.1,24.3,22.1c7.9,0,14.4-2.3,18.9-6.8v2.9
	c0,1.5,1.2,2.7,2.7,2.7h12.4c1.5,0,2.7-1.2,2.7-2.7v-47C313.5,81.1,301.3,70.9,283.9,70.9z"/>  </symbol>
</svg>